# Blender v2.81 (sub 16) OBJ File: 'sphere.blend'
# www.blender.org
mtllib sphere.mtl
o Sphere_Sphere.001
v 0.000000 0.007071 -0.007071
v 0.000000 0.003827 -0.009239
v 0.000000 -0.003827 -0.009239
v 0.000000 -0.009239 -0.003827
v 0.001464 0.009239 -0.003536
v 0.002706 0.007071 -0.006533
v 0.003536 0.003827 -0.008536
v 0.003827 -0.000000 -0.009239
v 0.003536 -0.003827 -0.008536
v 0.002706 -0.007071 -0.006533
v 0.001464 -0.009239 -0.003536
v 0.002706 0.009239 -0.002706
v 0.005000 0.007071 -0.005000
v 0.006533 0.003827 -0.006533
v 0.007071 -0.000000 -0.007071
v 0.006533 -0.003827 -0.006533
v 0.005000 -0.007071 -0.005000
v 0.002706 -0.009239 -0.002706
v 0.003536 0.009239 -0.001464
v 0.006533 0.007071 -0.002706
v 0.008536 0.003827 -0.003536
v 0.009239 -0.000000 -0.003827
v 0.008536 -0.003827 -0.003536
v 0.006533 -0.007071 -0.002706
v 0.003536 -0.009239 -0.001464
v 0.003827 0.009239 -0.000000
v 0.007071 0.007071 0.000000
v 0.009239 0.003827 -0.000000
v 0.010000 -0.000000 0.000000
v 0.009239 -0.003827 -0.000000
v 0.007071 -0.007071 0.000000
v 0.003827 -0.009239 -0.000000
v 0.003536 0.009239 0.001464
v 0.006533 0.007071 0.002706
v 0.008536 0.003827 0.003536
v 0.009239 -0.000000 0.003827
v 0.008536 -0.003827 0.003536
v 0.006533 -0.007071 0.002706
v 0.003536 -0.009239 0.001464
v 0.002706 0.009239 0.002706
v 0.005000 0.007071 0.005000
v 0.006533 0.003827 0.006533
v 0.007071 -0.000000 0.007071
v 0.006533 -0.003827 0.006533
v 0.005000 -0.007071 0.005000
v 0.002706 -0.009239 0.002706
v 0.001464 0.009239 0.003536
v 0.002706 0.007071 0.006533
v 0.003536 0.003827 0.008536
v 0.003827 -0.000000 0.009239
v 0.003536 -0.003827 0.008536
v 0.002706 -0.007071 0.006533
v 0.001464 -0.009239 0.003536
v -0.000000 0.009239 0.003827
v -0.000000 0.007071 0.007071
v -0.000000 0.003827 0.009239
v -0.000000 -0.000000 0.010000
v -0.000000 -0.003827 0.009239
v -0.000000 -0.007071 0.007071
v -0.000000 -0.009239 0.003827
v -0.001464 0.009239 0.003536
v -0.002706 0.007071 0.006533
v -0.003536 0.003827 0.008536
v -0.003827 -0.000000 0.009239
v -0.003536 -0.003827 0.008536
v -0.002706 -0.007071 0.006533
v -0.001464 -0.009239 0.003536
v -0.002706 0.009239 0.002706
v -0.005000 0.007071 0.005000
v -0.006533 0.003827 0.006533
v -0.007071 -0.000000 0.007071
v -0.006533 -0.003827 0.006533
v -0.005000 -0.007071 0.005000
v -0.002706 -0.009239 0.002706
v -0.003536 0.009239 0.001464
v -0.006533 0.007071 0.002706
v -0.008536 0.003827 0.003536
v -0.009239 -0.000000 0.003827
v -0.008536 -0.003827 0.003536
v -0.006533 -0.007071 0.002706
v -0.003536 -0.009239 0.001464
v -0.003827 0.009239 -0.000000
v -0.007071 0.007071 -0.000000
v -0.009239 0.003827 -0.000000
v -0.010000 -0.000000 -0.000000
v -0.009239 -0.003827 -0.000000
v -0.007071 -0.007071 -0.000000
v -0.003827 -0.009239 -0.000000
v -0.003536 0.009239 -0.001464
v -0.006533 0.007071 -0.002706
v -0.008536 0.003827 -0.003536
v -0.009239 -0.000000 -0.003827
v -0.008536 -0.003827 -0.003536
v -0.006533 -0.007071 -0.002706
v -0.003536 -0.009239 -0.001464
v -0.002706 0.009239 -0.002706
v -0.005000 0.007071 -0.005000
v -0.006533 0.003827 -0.006533
v -0.007071 -0.000000 -0.007071
v -0.006533 -0.003827 -0.006533
v -0.005000 -0.007071 -0.005000
v -0.002706 -0.009239 -0.002706
v -0.001464 0.009239 -0.003536
v -0.002706 0.007071 -0.006533
v -0.003536 0.003827 -0.008536
v -0.003827 -0.000000 -0.009239
v -0.003536 -0.003827 -0.008536
v -0.002706 -0.007071 -0.006533
v -0.001464 -0.009239 -0.003536
v -0.000000 0.010000 -0.000000
v 0.000000 0.009239 -0.003827
v 0.000000 -0.000000 -0.010000
v 0.000000 -0.007071 -0.007071
v 0.000000 -0.010000 -0.000000
vt 0.750000 0.250000
vt 0.687500 0.375000
vt 0.687500 0.250000
vt 0.750000 0.500000
vt 0.687500 0.625000
vt 0.687500 0.500000
vt 0.750000 0.875000
vt 0.687500 0.750000
vt 0.750000 0.750000
vt 0.687500 0.125000
vt 0.750000 0.125000
vt 0.750000 0.375000
vt 0.750000 0.625000
vt 0.718750 1.000000
vt 0.687500 0.875000
vt 0.718750 0.000000
vt 0.625000 0.125000
vt 0.625000 0.375000
vt 0.625000 0.625000
vt 0.656250 1.000000
vt 0.625000 0.875000
vt 0.656250 0.000000
vt 0.625000 0.250000
vt 0.625000 0.500000
vt 0.625000 0.750000
vt 0.562500 0.625000
vt 0.593750 1.000000
vt 0.562500 0.875000
vt 0.593750 0.000000
vt 0.562500 0.125000
vt 0.562500 0.375000
vt 0.562500 0.250000
vt 0.562500 0.500000
vt 0.562500 0.750000
vt 0.531250 0.000000
vt 0.500000 0.125000
vt 0.500000 0.375000
vt 0.500000 0.250000
vt 0.500000 0.500000
vt 0.500000 0.750000
vt 0.500000 0.625000
vt 0.531250 1.000000
vt 0.500000 0.875000
vt 0.437500 0.750000
vt 0.437500 0.125000
vt 0.437500 0.375000
vt 0.437500 0.625000
vt 0.468750 1.000000
vt 0.437500 0.875000
vt 0.468750 0.000000
vt 0.437500 0.250000
vt 0.437500 0.500000
vt 0.375000 0.250000
vt 0.375000 0.125000
vt 0.375000 0.500000
vt 0.375000 0.375000
vt 0.375000 0.625000
vt 0.406250 1.000000
vt 0.375000 0.875000
vt 0.406250 0.000000
vt 0.375000 0.750000
vt 0.343750 1.000000
vt 0.312500 0.875000
vt 0.343750 0.000000
vt 0.312500 0.125000
vt 0.312500 0.375000
vt 0.312500 0.250000
vt 0.312500 0.500000
vt 0.312500 0.750000
vt 0.312500 0.625000
vt 0.250000 0.375000
vt 0.250000 0.250000
vt 0.250000 0.500000
vt 0.250000 0.750000
vt 0.250000 0.125000
vt 0.250000 0.625000
vt 0.281250 1.000000
vt 0.250000 0.875000
vt 0.281250 0.000000
vt 0.187500 0.250000
vt 0.187500 0.125000
vt 0.187500 0.375000
vt 0.187500 0.625000
vt 0.218750 1.000000
vt 0.187500 0.875000
vt 0.218750 0.000000
vt 0.187500 0.500000
vt 0.187500 0.750000
vt 0.125000 0.500000
vt 0.125000 0.375000
vt 0.125000 0.625000
vt 0.156250 1.000000
vt 0.125000 0.875000
vt 0.156250 0.000000
vt 0.125000 0.125000
vt 0.125000 0.250000
vt 0.125000 0.750000
vt 0.093750 0.000000
vt 0.062500 0.125000
vt 0.062500 0.375000
vt 0.062500 0.250000
vt 0.062500 0.500000
vt 0.062500 0.875000
vt 0.062500 0.750000
vt 0.062500 0.625000
vt 0.093750 1.000000
vt 0.000000 0.500000
vt 0.000000 0.750000
vt 0.000000 0.250000
vt 0.000000 0.125000
vt 0.000000 0.375000
vt 0.000000 0.625000
vt 0.031250 1.000000
vt 0.000000 0.875000
vt 0.031250 0.000000
vt 1.000000 0.125000
vt 0.937500 0.250000
vt 0.937500 0.125000
vt 1.000000 0.500000
vt 0.937500 0.375000
vt 1.000000 0.375000
vt 1.000000 0.750000
vt 0.937500 0.625000
vt 1.000000 0.625000
vt 1.000000 0.875000
vt 0.968750 1.000000
vt 0.937500 0.875000
vt 0.968750 0.000000
vt 1.000000 0.250000
vt 0.937500 0.500000
vt 0.937500 0.750000
vt 0.875000 0.625000
vt 0.906250 1.000000
vt 0.875000 0.875000
vt 0.906250 0.000000
vt 0.875000 0.125000
vt 0.875000 0.375000
vt 0.875000 0.250000
vt 0.875000 0.500000
vt 0.875000 0.750000
vt 0.843750 0.000000
vt 0.812500 0.125000
vt 0.812500 0.250000
vt 0.812500 0.500000
vt 0.812500 0.750000
vt 0.812500 0.375000
vt 0.812500 0.625000
vt 0.843750 1.000000
vt 0.812500 0.875000
vt 0.781250 1.000000
vt 0.781250 0.000000
vn 0.1632 -0.5481 -0.8203
vn 0.1915 0.1915 -0.9626
vn 0.1098 0.8264 -0.5522
vn 0.1098 -0.8264 -0.5522
vn 0.1915 -0.1915 -0.9626
vn 0.1632 0.5481 -0.8203
vn 0.0388 0.9800 -0.1949
vn 0.0388 -0.9800 -0.1949
vn 0.3128 -0.8264 -0.4681
vn 0.5453 -0.1915 -0.8161
vn 0.4647 0.5481 -0.6954
vn 0.1104 0.9800 -0.1653
vn 0.1104 -0.9800 -0.1653
vn 0.4647 -0.5481 -0.6954
vn 0.5453 0.1915 -0.8161
vn 0.3128 0.8264 -0.4681
vn 0.6954 0.5481 -0.4647
vn 0.1653 0.9800 -0.1104
vn 0.1653 -0.9800 -0.1104
vn 0.6954 -0.5481 -0.4647
vn 0.8161 0.1915 -0.5453
vn 0.4681 0.8264 -0.3128
vn 0.4681 -0.8264 -0.3128
vn 0.8161 -0.1915 -0.5453
vn 0.1949 -0.9800 -0.0388
vn 0.8203 -0.5481 -0.1632
vn 0.9626 0.1915 -0.1915
vn 0.5522 0.8264 -0.1098
vn 0.5522 -0.8264 -0.1098
vn 0.9626 -0.1915 -0.1915
vn 0.8203 0.5481 -0.1632
vn 0.1949 0.9800 -0.0388
vn 0.5522 0.8264 0.1098
vn 0.5522 -0.8264 0.1098
vn 0.9626 -0.1915 0.1915
vn 0.8203 0.5481 0.1632
vn 0.1949 0.9800 0.0388
vn 0.1949 -0.9800 0.0388
vn 0.8203 -0.5481 0.1632
vn 0.9626 0.1915 0.1915
vn 0.4681 -0.8264 0.3128
vn 0.8161 -0.1915 0.5453
vn 0.6954 0.5481 0.4647
vn 0.1653 0.9800 0.1104
vn 0.1653 -0.9800 0.1104
vn 0.6954 -0.5481 0.4647
vn 0.8161 0.1915 0.5453
vn 0.4681 0.8264 0.3128
vn 0.1104 0.9800 0.1653
vn 0.1104 -0.9800 0.1653
vn 0.4647 -0.5481 0.6954
vn 0.5453 0.1915 0.8161
vn 0.3128 0.8264 0.4681
vn 0.3128 -0.8264 0.4681
vn 0.5453 -0.1915 0.8161
vn 0.4647 0.5481 0.6954
vn 0.1632 -0.5481 0.8203
vn 0.1915 0.1915 0.9626
vn 0.1098 0.8264 0.5522
vn 0.1098 -0.8264 0.5522
vn 0.1915 -0.1915 0.9626
vn 0.1632 0.5481 0.8203
vn 0.0388 0.9800 0.1949
vn 0.0388 -0.9800 0.1949
vn -0.1098 -0.8264 0.5522
vn -0.1915 -0.1915 0.9626
vn -0.1632 0.5481 0.8203
vn -0.0388 0.9800 0.1949
vn -0.0388 -0.9800 0.1949
vn -0.1632 -0.5481 0.8203
vn -0.1915 0.1915 0.9626
vn -0.1098 0.8264 0.5522
vn -0.5453 -0.1915 0.8161
vn -0.4647 0.5481 0.6954
vn -0.1104 0.9800 0.1653
vn -0.1104 -0.9800 0.1653
vn -0.4647 -0.5481 0.6954
vn -0.5453 0.1915 0.8161
vn -0.3128 0.8264 0.4681
vn -0.3128 -0.8264 0.4681
vn -0.1653 -0.9800 0.1104
vn -0.6954 -0.5481 0.4647
vn -0.8161 0.1915 0.5453
vn -0.4681 0.8264 0.3128
vn -0.4681 -0.8264 0.3128
vn -0.8161 -0.1915 0.5453
vn -0.6954 0.5481 0.4647
vn -0.1653 0.9800 0.1104
vn -0.9626 0.1915 0.1915
vn -0.5522 0.8264 0.1098
vn -0.5522 -0.8264 0.1098
vn -0.9626 -0.1915 0.1915
vn -0.8203 0.5481 0.1632
vn -0.1949 0.9800 0.0388
vn -0.1949 -0.9800 0.0388
vn -0.8203 -0.5481 0.1632
vn -0.5522 -0.8264 -0.1098
vn -0.9626 -0.1915 -0.1915
vn -0.8203 0.5481 -0.1632
vn -0.1949 0.9800 -0.0388
vn -0.1949 -0.9800 -0.0388
vn -0.8203 -0.5481 -0.1632
vn -0.9626 0.1915 -0.1915
vn -0.5522 0.8264 -0.1098
vn -0.6954 0.5481 -0.4647
vn -0.1653 0.9800 -0.1104
vn -0.1653 -0.9800 -0.1104
vn -0.6954 -0.5481 -0.4647
vn -0.8161 0.1915 -0.5453
vn -0.4681 0.8264 -0.3128
vn -0.4681 -0.8264 -0.3128
vn -0.8161 -0.1915 -0.5453
vn -0.1104 -0.9800 -0.1653
vn -0.4647 -0.5481 -0.6954
vn -0.5453 0.1915 -0.8161
vn -0.3128 0.8264 -0.4681
vn -0.3128 -0.8264 -0.4681
vn -0.5453 -0.1915 -0.8161
vn -0.4647 0.5481 -0.6954
vn -0.1104 0.9800 -0.1653
vn -0.1098 0.8264 -0.5522
vn -0.1098 -0.8264 -0.5522
vn -0.1915 -0.1915 -0.9626
vn -0.1632 0.5481 -0.8203
vn -0.0388 0.9800 -0.1949
vn -0.0388 -0.9800 -0.1949
vn -0.1632 -0.5481 -0.8203
vn -0.1915 0.1915 -0.9626
usemtl None
s off
f 113/1/1 9/2/1 10/3/1
f 112/4/2 7/5/2 8/6/2
f 111/7/3 6/8/3 1/9/3
f 113/1/4 11/10/4 4/11/4
f 112/4/5 9/2/5 3/12/5
f 1/9/6 7/5/6 2/13/6
f 111/7/7 110/14/7 5/15/7
f 114/16/8 4/11/8 11/10/8
f 10/3/9 18/17/9 11/10/9
f 8/6/10 16/18/10 9/2/10
f 6/8/11 14/19/11 7/5/11
f 5/15/12 110/20/12 12/21/12
f 114/22/13 11/10/13 18/17/13
f 9/2/14 17/23/14 10/3/14
f 8/6/15 14/19/15 15/24/15
f 5/15/16 13/25/16 6/8/16
f 13/25/17 21/26/17 14/19/17
f 12/21/18 110/27/18 19/28/18
f 114/29/19 18/17/19 25/30/19
f 17/23/20 23/31/20 24/32/20
f 15/24/21 21/26/21 22/33/21
f 12/21/22 20/34/22 13/25/22
f 17/23/23 25/30/23 18/17/23
f 15/24/24 23/31/24 16/18/24
f 114/35/25 25/30/25 32/36/25
f 24/32/26 30/37/26 31/38/26
f 21/26/27 29/39/27 22/33/27
f 19/28/28 27/40/28 20/34/28
f 25/30/29 31/38/29 32/36/29
f 22/33/30 30/37/30 23/31/30
f 20/34/31 28/41/31 21/26/31
f 19/28/32 110/42/32 26/43/32
f 26/43/33 34/44/33 27/40/33
f 31/38/34 39/45/34 32/36/34
f 29/39/35 37/46/35 30/37/35
f 27/40/36 35/47/36 28/41/36
f 26/43/37 110/48/37 33/49/37
f 114/50/38 32/36/38 39/45/38
f 31/38/39 37/46/39 38/51/39
f 29/39/40 35/47/40 36/52/40
f 39/45/41 45/53/41 46/54/41
f 37/46/42 43/55/42 44/56/42
f 34/44/43 42/57/43 35/47/43
f 33/49/44 110/58/44 40/59/44
f 114/60/45 39/45/45 46/54/45
f 38/51/46 44/56/46 45/53/46
f 35/47/47 43/55/47 36/52/47
f 33/49/48 41/61/48 34/44/48
f 40/59/49 110/62/49 47/63/49
f 114/64/50 46/54/50 53/65/50
f 45/53/51 51/66/51 52/67/51
f 42/57/52 50/68/52 43/55/52
f 41/61/53 47/63/53 48/69/53
f 45/53/54 53/65/54 46/54/54
f 43/55/55 51/66/55 44/56/55
f 41/61/56 49/70/56 42/57/56
f 52/67/57 58/71/57 59/72/57
f 49/70/58 57/73/58 50/68/58
f 47/63/59 55/74/59 48/69/59
f 52/67/60 60/75/60 53/65/60
f 50/68/61 58/71/61 51/66/61
f 48/69/62 56/76/62 49/70/62
f 47/63/63 110/77/63 54/78/63
f 114/79/64 53/65/64 60/75/64
f 60/75/65 66/80/65 67/81/65
f 57/73/66 65/82/66 58/71/66
f 55/74/67 63/83/67 56/76/67
f 54/78/68 110/84/68 61/85/68
f 114/86/69 60/75/69 67/81/69
f 58/71/70 66/80/70 59/72/70
f 56/76/71 64/87/71 57/73/71
f 54/78/72 62/88/72 55/74/72
f 65/82/73 71/89/73 72/90/73
f 62/88/74 70/91/74 63/83/74
f 61/85/75 110/92/75 68/93/75
f 114/94/76 67/81/76 74/95/76
f 66/80/77 72/90/77 73/96/77
f 63/83/78 71/89/78 64/87/78
f 61/85/79 69/97/79 62/88/79
f 66/80/80 74/95/80 67/81/80
f 114/98/81 74/95/81 81/99/81
f 73/96/82 79/100/82 80/101/82
f 70/91/83 78/102/83 71/89/83
f 69/97/84 75/103/84 76/104/84
f 73/96/85 81/99/85 74/95/85
f 71/89/86 79/100/86 72/90/86
f 69/97/87 77/105/87 70/91/87
f 68/93/88 110/106/88 75/103/88
f 77/105/89 85/107/89 78/102/89
f 75/103/90 83/108/90 76/104/90
f 81/99/91 87/109/91 88/110/91
f 78/102/92 86/111/92 79/100/92
f 76/104/93 84/112/93 77/105/93
f 75/103/94 110/113/94 82/114/94
f 114/115/95 81/99/95 88/110/95
f 79/100/96 87/109/96 80/101/96
f 88/116/97 94/117/97 95/118/97
f 85/119/98 93/120/98 86/121/98
f 83/122/99 91/123/99 84/124/99
f 82/125/100 110/126/100 89/127/100
f 114/128/101 88/116/101 95/118/101
f 87/129/102 93/120/102 94/117/102
f 84/124/103 92/130/103 85/119/103
f 82/125/104 90/131/104 83/122/104
f 90/131/105 98/132/105 91/123/105
f 89/127/106 110/133/106 96/134/106
f 114/135/107 95/118/107 102/136/107
f 94/117/108 100/137/108 101/138/108
f 91/123/109 99/139/109 92/130/109
f 89/127/110 97/140/110 90/131/110
f 94/117/111 102/136/111 95/118/111
f 92/130/112 100/137/112 93/120/112
f 114/141/113 102/136/113 109/142/113
f 100/137/114 108/143/114 101/138/114
f 98/132/115 106/144/115 99/139/115
f 96/134/116 104/145/116 97/140/116
f 101/138/117 109/142/117 102/136/117
f 99/139/118 107/146/118 100/137/118
f 97/140/119 105/147/119 98/132/119
f 96/134/120 110/148/120 103/149/120
f 103/149/121 1/9/121 104/145/121
f 108/143/122 4/11/122 109/142/122
f 106/144/123 3/12/123 107/146/123
f 104/145/124 2/13/124 105/147/124
f 103/149/125 110/150/125 111/7/125
f 114/151/126 109/142/126 4/11/126
f 108/143/127 3/12/127 113/1/127
f 106/144/128 2/13/128 112/4/128
f 113/1/1 3/12/1 9/2/1
f 112/4/2 2/13/2 7/5/2
f 111/7/3 5/15/3 6/8/3
f 113/1/4 10/3/4 11/10/4
f 112/4/5 8/6/5 9/2/5
f 1/9/6 6/8/6 7/5/6
f 10/3/9 17/23/9 18/17/9
f 8/6/10 15/24/10 16/18/10
f 6/8/11 13/25/11 14/19/11
f 9/2/14 16/18/14 17/23/14
f 8/6/15 7/5/15 14/19/15
f 5/15/16 12/21/16 13/25/16
f 13/25/17 20/34/17 21/26/17
f 17/23/20 16/18/20 23/31/20
f 15/24/21 14/19/21 21/26/21
f 12/21/22 19/28/22 20/34/22
f 17/23/23 24/32/23 25/30/23
f 15/24/24 22/33/24 23/31/24
f 24/32/26 23/31/26 30/37/26
f 21/26/27 28/41/27 29/39/27
f 19/28/28 26/43/28 27/40/28
f 25/30/29 24/32/29 31/38/29
f 22/33/30 29/39/30 30/37/30
f 20/34/31 27/40/31 28/41/31
f 26/43/33 33/49/33 34/44/33
f 31/38/34 38/51/34 39/45/34
f 29/39/35 36/52/35 37/46/35
f 27/40/36 34/44/36 35/47/36
f 31/38/39 30/37/39 37/46/39
f 29/39/40 28/41/40 35/47/40
f 39/45/41 38/51/41 45/53/41
f 37/46/42 36/52/42 43/55/42
f 34/44/43 41/61/43 42/57/43
f 38/51/46 37/46/46 44/56/46
f 35/47/47 42/57/47 43/55/47
f 33/49/48 40/59/48 41/61/48
f 45/53/51 44/56/51 51/66/51
f 42/57/52 49/70/52 50/68/52
f 41/61/53 40/59/53 47/63/53
f 45/53/54 52/67/54 53/65/54
f 43/55/55 50/68/55 51/66/55
f 41/61/56 48/69/56 49/70/56
f 52/67/57 51/66/57 58/71/57
f 49/70/58 56/76/58 57/73/58
f 47/63/59 54/78/59 55/74/59
f 52/67/60 59/72/60 60/75/60
f 50/68/61 57/73/61 58/71/61
f 48/69/62 55/74/62 56/76/62
f 60/75/65 59/72/65 66/80/65
f 57/73/66 64/87/66 65/82/66
f 55/74/67 62/88/67 63/83/67
f 58/71/70 65/82/70 66/80/70
f 56/76/71 63/83/71 64/87/71
f 54/78/72 61/85/72 62/88/72
f 65/82/73 64/87/73 71/89/73
f 62/88/74 69/97/74 70/91/74
f 66/80/77 65/82/77 72/90/77
f 63/83/78 70/91/78 71/89/78
f 61/85/79 68/93/79 69/97/79
f 66/80/80 73/96/80 74/95/80
f 73/96/82 72/90/82 79/100/82
f 70/91/83 77/105/83 78/102/83
f 69/97/84 68/93/84 75/103/84
f 73/96/85 80/101/85 81/99/85
f 71/89/86 78/102/86 79/100/86
f 69/97/87 76/104/87 77/105/87
f 77/105/89 84/112/89 85/107/89
f 75/103/90 82/114/90 83/108/90
f 81/99/91 80/101/91 87/109/91
f 78/102/92 85/107/92 86/111/92
f 76/104/93 83/108/93 84/112/93
f 79/100/96 86/111/96 87/109/96
f 88/116/97 87/129/97 94/117/97
f 85/119/98 92/130/98 93/120/98
f 83/122/99 90/131/99 91/123/99
f 87/129/102 86/121/102 93/120/102
f 84/124/103 91/123/103 92/130/103
f 82/125/104 89/127/104 90/131/104
f 90/131/105 97/140/105 98/132/105
f 94/117/108 93/120/108 100/137/108
f 91/123/109 98/132/109 99/139/109
f 89/127/110 96/134/110 97/140/110
f 94/117/111 101/138/111 102/136/111
f 92/130/112 99/139/112 100/137/112
f 100/137/114 107/146/114 108/143/114
f 98/132/115 105/147/115 106/144/115
f 96/134/116 103/149/116 104/145/116
f 101/138/117 108/143/117 109/142/117
f 99/139/118 106/144/118 107/146/118
f 97/140/119 104/145/119 105/147/119
f 103/149/121 111/7/121 1/9/121
f 108/143/122 113/1/122 4/11/122
f 106/144/123 112/4/123 3/12/123
f 104/145/124 1/9/124 2/13/124
f 108/143/127 107/146/127 3/12/127
f 106/144/128 105/147/128 2/13/128